<?xml version="1.0" standalone="no"?>
<!DOCTYPE svg PUBLIC "-//W3C//DTD SVG 20010904//EN"
 "http://www.w3.org/TR/2001/REC-SVG-20010904/DTD/svg10.dtd">
<svg version="1.0" xmlns="http://www.w3.org/2000/svg"
 width="600.000000pt" height="598.000000pt" viewBox="0 0 600.000000 598.000000"
 preserveAspectRatio="xMidYMid meet">
<metadata>
Created by potrace 1.11, written by Peter Selinger 2001-2013
</metadata>
<g transform="translate(0.000000,598.000000) scale(0.100000,-0.100000)"
fill="#000000" stroke="none">
<path d="M2103 5969 c-708 -63 -1334 -438 -1725 -1034 -182 -277 -303 -597
-354 -940 -21 -145 -24 -464 -6 -605 70 -523 297 -988 657 -1345 360 -357 791
-572 1305 -651 159 -25 491 -25 650 -1 283 43 538 127 774 254 44 24 83 43 87
43 4 0 369 -352 811 -781 473 -461 827 -797 862 -820 263 -173 630 -72 770
212 89 182 83 368 -19 545 -31 56 16 9 -933 928 l-712 689 36 65 c217 388 317
795 301 1228 -28 751 -400 1419 -1021 1836 -425 285 -969 423 -1483 377z m427
-934 c424 -69 804 -346 1003 -732 274 -530 176 -1164 -245 -1592 -419 -426
-1051 -535 -1584 -274 -397 194 -684 578 -758 1012 -21 122 -21 330 0 452 128
749 835 1255 1584 1134z"/>
</g>
</svg>
